<svg width="40" height="40" viewBox="0 0 40 40" fill="none" xmlns="http://www.w3.org/2000/svg">
<path fill-rule="evenodd" clip-rule="evenodd" d="M20.0016 0.800049C14.7871 0.800049 14.1327 0.822849 12.0847 0.91605C10.0407 1.00965 8.64549 1.33325 7.42467 1.80806C6.16186 2.29846 5.09065 2.95447 4.02344 4.02208C2.95543 5.08929 2.29942 6.1605 1.80742 7.42292C1.33141 8.64413 1.00741 10.0397 0.915406 12.083C0.823805 14.131 0.799805 14.7858 0.799805 20.0002C0.799805 25.2147 0.823005 25.8671 0.915806 27.9151C1.00981 29.9591 1.33341 31.3544 1.80782 32.5752C2.29862 33.838 2.95463 34.9092 4.02224 35.9764C5.08905 37.0444 6.16026 37.702 7.42227 38.1924C8.64389 38.6672 10.0395 38.9908 12.0831 39.0844C14.1311 39.1776 14.7852 39.2004 19.9992 39.2004C25.2141 39.2004 25.8665 39.1776 27.9145 39.0844C29.9585 38.9908 31.3553 38.6672 32.5769 38.1924C33.8394 37.702 34.909 37.0444 35.9758 35.9764C37.0438 34.9092 37.6998 33.838 38.1918 32.5756C38.6638 31.3544 38.9878 29.9588 39.0838 27.9155C39.1758 25.8675 39.1998 25.2147 39.1998 20.0002C39.1998 14.7858 39.1758 14.1314 39.0838 12.0834C38.9878 10.0393 38.6638 8.64413 38.1918 7.42332C37.6998 6.1605 37.0438 5.08929 35.9758 4.02208C34.9078 2.95407 33.8398 2.29806 32.5757 1.80806C31.3517 1.33325 29.9557 1.00965 27.9117 0.91605C25.8637 0.822849 25.2117 0.800049 19.9956 0.800049H20.0016ZM18.2791 4.26003C18.7903 4.25923 19.3607 4.26003 20.0015 4.26003C25.128 4.26003 25.7356 4.27843 27.76 4.37043C29.632 4.45603 30.648 4.76884 31.3248 5.03164C32.2208 5.37964 32.8597 5.79565 33.5313 6.46765C34.2033 7.13966 34.6193 7.77967 34.9681 8.67568C35.2309 9.35168 35.5441 10.3677 35.6293 12.2397C35.7213 14.2637 35.7413 14.8717 35.7413 19.9958C35.7413 25.1199 35.7213 25.7279 35.6293 27.7519C35.5437 29.6239 35.2309 30.6399 34.9681 31.3159C34.6201 32.2119 34.2033 32.8499 33.5313 33.5215C32.8593 34.1935 32.2212 34.6095 31.3248 34.9576C30.6488 35.2216 29.632 35.5336 27.76 35.6192C25.736 35.7112 25.128 35.7312 20.0015 35.7312C14.8747 35.7312 14.2671 35.7112 12.243 35.6192C10.371 35.5328 9.35501 35.22 8.6778 34.9572C7.7818 34.6091 7.14179 34.1931 6.46978 33.5211C5.79777 32.8491 5.38177 32.2107 5.03297 31.3143C4.77016 30.6383 4.45696 29.6223 4.37176 27.7503C4.27976 25.7263 4.26136 25.1182 4.26136 19.991C4.26136 14.8637 4.27976 14.2589 4.37176 12.2349C4.45736 10.3629 4.77016 9.34688 5.03297 8.67008C5.38097 7.77407 5.79777 7.13406 6.46978 6.46205C7.14179 5.79005 7.7818 5.37404 8.6778 5.02524C9.35461 4.76124 10.371 4.44923 12.243 4.36323C14.0143 4.28323 14.7007 4.25923 18.2791 4.25523V4.26003ZM30.2504 7.44807C28.9784 7.44807 27.9464 8.47888 27.9464 9.7513C27.9464 11.0233 28.9784 12.0553 30.2504 12.0553C31.5225 12.0553 32.5545 11.0233 32.5545 9.7513C32.5545 8.47928 31.5225 7.44807 30.2504 7.44807ZM20.0016 10.1401C14.5564 10.1401 10.1415 14.5549 10.1415 20.0002C10.1415 25.4455 14.5564 29.8583 20.0016 29.8583C25.4469 29.8583 29.8601 25.4455 29.8601 20.0002C29.8601 14.5549 25.4469 10.1401 20.0016 10.1401ZM20.0016 13.6001C23.536 13.6001 26.4016 16.4654 26.4016 20.0002C26.4016 23.5346 23.536 26.4003 20.0016 26.4003C16.4667 26.4003 13.6015 23.5346 13.6015 20.0002C13.6015 16.4654 16.4667 13.6001 20.0016 13.6001Z" fill="#2D2D2D"/>
</svg>
